<svg
    xmlns="http://www.w3.org/2000/svg"
    viewBox="0 0 108 108"
    id="vector">
    <defs>
        <clipPath id="clip_path">
            <path d="M 250.5 250.5 M 86 250.5 C 86 206.889 103.343 165.019 134.181 134.181 C 165.019 103.343 206.889 86 250.5 86 C 294.111 86 335.981 103.343 366.819 134.181 C 397.657 165.019 415 206.889 415 250.5 C 415 294.111 397.657 335.981 366.819 366.819 C 335.981 397.657 294.111 415 250.5 415 C 206.889 415 165.019 397.657 134.181 366.819 C 103.343 335.981 86 294.111 86 250.5"/>
        </clipPath>
        <clipPath id="clip_path_1">
            <path d="M 250.5 250.5 M 86 250.5 C 86 206.889 103.343 165.019 134.181 134.181 C 165.019 103.343 206.889 86 250.5 86 C 294.111 86 335.981 103.343 366.819 134.181 C 397.657 165.019 415 206.889 415 250.5 C 415 294.111 397.657 335.981 366.819 366.819 C 335.981 397.657 294.111 415 250.5 415 C 206.889 415 165.019 397.657 134.181 366.819 C 103.343 335.981 86 294.111 86 250.5"/>
        </clipPath>
    </defs>
    <g
        id="group_1"
        transform="translate(14.58 14.58) scale(0.15768 0.15768)">
        <g
            id="group"
            transform="translate(-125 -125) scale(1.5 1.5)">
            <path
                id="path"
                clip-path="url(#clip_path)"
                d="M 68.09 36.4 C 63.96 48.18 65.52 60.99 65.62 73.39 L 66.09 137.78 L 67.7 358.35 L 68.25 433.7 C 68.3 441.63 65.56 456.61 70.27 463.41 C 74.08 468.91 86.02 466.58 91.78 466.58 C 112.3 466.58 132.92 464.79 153.4 463.9 C 176.19 462.9 199.1 464.38 221.9 463.82 C 267.53 462.7 313.28 460.41 358.86 458.42 C 376.19 457.66 393.56 456.99 410.92 456.99 C 417.93 456.99 427.83 458.67 433.75 454.05 C 439.63 449.46 436.57 437.29 435.78 430.96 C 433.43 412.22 435.1 392.29 434.96 373.42 C 434.37 291.29 429.65 209 429.05 126.82 C 428.89 103.91 428.4 81.15 427.24 58.32 C 426.89 51.53 429.64 39.67 422.71 35.47 C 415.55 31.14 402.18 33.66 394.13 33.66 L 326.99 33.66 C 240.73 33.66 154.43 36.4 68.09 36.4 Z"
                fill="#ffffff"/>
            <path
                id="path_1"
                clip-path="url(#clip_path_1)"
                d="M 81.9 51.47 L 83.4 69.28 C 94.76 68.79 105.05 64.03 116.23 62.69 C 134 60.56 154.64 61.43 172.35 63.96 C 192.44 66.83 209.57 77.16 228.83 82.23 C 236.22 84.17 245.81 83.39 253.37 82.86 C 278.26 81.12 303.73 71.64 327.21 63.96 C 337.29 60.67 346.56 53.56 357.27 52.84 L 357.24 48.73 C 265.47 48.73 173.7 51.47 81.9 51.47 Z M 84.13 356.98 C 94.62 354.37 104.54 348.47 114.17 343.65 C 126.41 337.52 140.8 332.26 151.76 323.98 C 173 307.94 190.35 286.68 209.86 268.56 C 216.53 262.36 224.41 257.56 231.15 251.44 C 259.19 225.96 289.25 201.86 317.05 175.9 C 325.9 167.64 333.36 157.71 342.17 149.26 C 353.11 138.77 368.6 134.46 381.05 126.22 C 392.32 118.76 397.95 106.63 404.5 95.26 C 409.27 86.97 413.62 81.9 413.58 72.02 C 402.59 73.67 392.71 79.1 382.15 82.16 C 357.48 89.31 331.94 91.89 306.91 97.84 C 291.12 101.59 276.99 107.75 260.41 108.89 C 246.08 109.88 230.66 109.5 216.56 106.52 C 204.02 103.87 192 98.73 179.49 96.02 C 168.38 93.62 156.5 92.93 145.21 91.59 C 130.58 89.86 110.23 88.73 95.89 92.02 C 87.63 93.91 79.47 98.34 84.51 108.58 C 86.58 112.81 93.39 112.89 97.41 113.07 C 110.15 113.63 123.07 112.15 135.78 113.36 C 150.14 114.72 165.33 114.29 179.42 117.86 C 195.21 121.87 209.71 128.8 226.32 129.51 C 249.55 130.5 272.09 120.84 294.73 117.82 C 305.42 116.39 329.98 115.3 327.35 132.3 C 323.57 156.67 293.48 173.79 276.06 187.95 C 252.61 207.01 230.21 226.97 206.05 245.15 C 194.84 253.57 184.73 262.73 172.54 269.86 C 150.11 282.98 127.81 295.31 106.72 310.25 C 100.07 314.96 91.08 317.68 86.08 324.51 C 80.77 331.79 84.06 348.27 84.13 356.98 Z M 86 425.48 C 98.22 423.15 110.86 416.82 122.89 413.1 C 141.66 407.3 161.43 405.95 180.35 401.15 C 204.28 395.09 227.92 385.53 252.84 384.44 C 272.45 383.58 291.46 386.48 310.43 391.63 C 324.62 395.48 338.05 401.48 352.98 402.14 C 370.58 402.92 390.5 402.5 407.75 399.18 C 416.21 397.56 425.35 392.46 418.34 382.08 C 415.53 377.9 409.18 378.9 404.86 378.9 L 366.51 378.9 C 359.37 378.89 352.95 377.15 345.94 376.4 C 338.19 375.57 330.29 375.82 322.63 374.07 C 308.71 370.89 295.81 365.43 281.46 364.07 C 262.5 362.26 245.07 367.86 226.73 371.48 C 213.32 374.12 201.04 377.85 187.01 375.9 C 179.48 374.86 172.99 369.13 173.68 361.09 C 174.32 353.7 179.51 347.53 183.87 341.92 C 195.51 326.94 213.63 313.91 228.56 302.34 C 260.82 277.34 290.1 249.07 323.14 224.96 C 337.61 214.39 354.95 207.83 369.69 197.51 C 380.41 189.99 391.65 183.63 402.23 175.97 C 406.6 172.8 411.69 170.12 414.25 165.06 C 417.57 158.48 415.51 147.76 415.45 140.52 C 406.96 141.66 402.43 148.07 394.93 151.35 C 374.96 160.1 352.92 170.47 336.5 185.07 C 326.18 194.24 317.18 205.49 307.38 215.29 C 297.97 224.69 286.65 231.19 276.89 239.91 C 264.37 251.09 252.88 263.65 240.47 274.89 C 225.08 288.82 208.31 301.03 192.4 314.32 C 181.02 323.82 172.7 336.95 160.74 345.78 C 155.45 349.69 151.16 354.86 145.78 358.55 C 138.74 363.38 130.07 365.47 123.22 370.18 C 112.02 377.87 105.27 386.47 97.59 397.29 C 91.23 406.27 83.22 413.75 86 425.48 Z M 83.93 141.89 C 83.03 146.89 81.36 153.32 85.26 157.56 C 89.93 162.63 103.58 163.27 110.12 164.72 C 129.77 169.07 147.52 177.9 167.77 180.18 C 175.65 181.07 184.68 180.27 192.32 182.01 C 195.51 182.73 198.6 184.94 198.26 188.58 C 197.83 193.17 191.48 199.26 188.51 202.64 C 177.5 215.15 160.94 227.78 146.26 235.65 C 141.4 238.26 130.25 245.79 125.11 241.07 C 120.64 236.97 124.29 230.72 127.26 227.07 C 133.64 219.22 141.4 210.26 132.38 200.59 C 124.87 192.54 107.11 190.23 96.6 188.87 C 92.18 188.3 84.97 187.52 83.36 192.9 C 81.36 199.59 83.04 208.9 83.1 215.87 L 83.46 265.19 C 83.49 270.11 81.06 285.29 86.79 287.58 C 90.25 288.97 95.25 286.53 98.66 285.77 C 104.66 284.43 109.37 280.86 115.06 278.73 C 122.39 276 129.63 273.66 136.92 270.56 C 163.95 259.08 189.82 242.65 209.79 220.84 C 218.07 211.79 224.72 201.07 233.16 192.12 C 241.39 183.4 248.52 173.79 256.93 165.25 C 262.21 159.89 269.48 155.43 273.04 148.74 C 261.74 149.32 252.14 153.95 241.56 156.9 C 229.7 160.2 216.9 160.44 204.61 159.58 C 185.13 158.21 168.49 145.86 149.69 142.36 C 142.22 140.97 133.96 141.89 126.39 141.89 L 83.93 141.89 Z M 226.52 346.02 C 236.41 345.51 244.54 339.79 253.86 337.02 C 268.29 332.72 282.58 331.39 297.67 332.45 C 318.35 333.89 335.48 345.23 355.33 349.42 C 361.54 350.74 368.21 350.13 374.52 350.13 C 385.07 350.13 395.54 350.41 406.02 349.15 C 409.45 348.74 414.65 349.5 417.49 347.15 C 420.36 344.77 418.98 338.42 417.86 335.38 C 415.66 329.37 401.85 328.81 396.27 327.77 C 374.3 323.7 354.15 312.88 331.76 310.64 C 324.55 309.92 301.43 314.43 305.47 300.82 C 307.18 295.03 312.39 291.22 316.39 287.08 C 328.36 274.71 341.9 265.07 356.01 255.33 C 360.65 252.13 373.48 244.96 378.75 249.57 C 382.66 252.98 378.86 257.79 376.9 261.12 C 372.47 268.67 361.5 278.44 368.39 287.85 C 375.11 297.03 393.52 301.62 404.3 302.13 C 408.23 302.31 415.04 303.07 417.15 298.85 C 420.44 292.28 417.84 279.32 417.79 272.04 C 417.62 249.17 416.08 226.45 415.92 203.54 C 404.74 204.26 393.6 210.34 383.11 214.03 C 364.22 220.68 343.6 229.16 327.14 240.66 C 301.39 258.64 280.36 285.15 260.64 309.22 C 255.13 315.95 249.2 324.22 242.72 329.96 C 236.45 335.5 229.38 337.52 226.52 346.02 Z M 142.34 448.77 C 213.67 448.77 284.76 443.29 356.02 443.29 C 372.01 443.29 387.9 441.92 403.95 441.92 C 408.4 441.92 417.17 443.48 420.34 439.54 C 423.34 435.8 421.66 427.27 421.63 422.74 C 410.45 423.22 399.78 427.15 388.79 429 C 372.57 431.72 354.55 432.3 338.11 430.73 C 326.19 429.59 313.69 427.34 302.44 423.09 C 293.2 419.6 284.79 414.16 274.96 412.42 C 251.48 408.26 223.87 415.35 202.2 423.74 C 187.37 429.48 171.98 432.69 157.34 439.17 C 151.65 441.68 144.5 442.41 142.34 448.77 Z"
                fill="#272722"/>
        </g>
    </g>
</svg>
